<svg 
  version="1.0" 
  xmlns="http://www.w3.org/2000/svg"  
  width="900pt" 
  height="900pt" 
  viewBox="0 0 900 900"  
  preserveAspectRatio="xMidYMid meet"
>  
  <g 
    transform="translate(0,900) scale(0.1,-0.1)" 
    fill="#4417C1" 
    stroke="#4417C1"
    stroke-width="100"
  >
    <path d="M4315 7801 c-6 -5 -30 -13 -55 -19 -85 -19 -227 -81 -296 -128 -114 -79 -237 -213 -269 -294 -4 -8 -13 -28 -20 -45 -28 -60 -40 -161 -26 -227 12 -58 43 -121 72 -145 32 -26 94 -35 151 -24 89 19 148 91 163 199 24 176 212 323 415 322 133 -1 259 -53 357 -149 51 -50 86 -108 120 -198 23 -64 24 -77 21 -230 -2 -110 -8 -167 -16 -175 -7 -7 -12 -21 -12 -32 0 -19 -63 -205 -81 -238 -5 -10 -9 -23 -9 -29 0 -12 -26 -75 -41 -99 -5 -8 -12 -22 -15 -30 -20 -56 -161 -343 -203 -415 -16 -27 -38 -66 -48 -85 -52 -98 -94 -172 -132 -233 -22 -37 -41 -71 -41 -76 0 -5 -46 -78 -103 -162 -57 -85 -117 -174 -134 -199 -16 -25 -47 -71 -69 -103 -21 -32 -46 -69 -54 -82 -31 -49 -77 -112 -135 -185 -86 -109 -97 -123 -182 -240 -42 -58 -97 -128 -122 -155 -194 -211 -290 -309 -381 -388 -58 -51 -114 -100 -125 -111 -69 -65 -304 -246 -370 -286 -22 -13 -65 -42 -95 -65 -90 -68 -189 -135 -199 -135 -5 0 -11 -4 -13 -8 -1 -4 -23 -18 -48 -31 -25 -13 -69 -40 -98 -60 -29 -20 -61 -40 -70 -46 -45 -26 -203 -133 -252 -171 -128 -98 -263 -263 -334 -409 -61 -127 -71 -173 -71 -345 0 -168 0 -166 69 -310 29 -61 138 -190 161 -190 5 0 24 -7 40 -16 22 -12 58 -16 130 -17 83 0 107 4 142 22 57 29 57 57 -1 130 -60 78 -106 154 -106 179 0 11 -4 24 -10 27 -13 8 -13 202 0 210 5 3 10 17 10 31 0 54 68 167 143 239 70 68 200 155 231 155 8 0 17 4 20 9 9 15 107 43 181 51 39 5 93 14 120 21 64 16 487 15 565 0 30 -7 89 -18 130 -26 160 -30 195 -38 204 -46 6 -5 20 -9 32 -9 12 0 44 -7 70 -14 27 -8 76 -22 109 -31 63 -18 166 -51 200 -65 11 -5 49 -18 85 -30 63 -20 119 -43 150 -59 9 -5 30 -12 48 -15 17 -4 34 -12 37 -17 4 -5 13 -9 22 -9 8 0 29 -6 46 -14 18 -8 55 -24 82 -36 28 -12 59 -25 70 -30 11 -5 43 -18 70 -30 28 -12 59 -25 70 -30 85 -38 115 -50 125 -50 6 0 33 -11 60 -25 27 -14 57 -25 67 -25 10 0 31 -7 47 -15 15 -8 33 -15 38 -15 6 0 24 -6 41 -14 18 -8 77 -29 132 -46 55 -18 118 -38 140 -46 23 -8 47 -14 55 -14 8 -4 27 -6 42 -14 14 -8 50 -17 80 -21 29 -4 58 -11 63 -15 6 -4 35 -10 65 -14 53 -6 107 -16 214 -37 172 -34 523 -31 691 6 39 9 95 20 125 26 30 6 63 15 72 20 10 5 25 9 34 9 47 0 316 128 449 214 120 78 144 96 214 161 78 73 271 299 271 319 0 5 10 23 23 40 39 54 140 271 152 327 4 19 11 39 15 44 4 6 11 26 15 45 4 19 11 41 16 50 19 33 32 154 36 320 3 159 2 180 -16 220 -44 98 -119 150 -218 150 -78 0 -102 -9 -158 -61 l-44 -41 1 -197 c0 -116 -3 -205 -9 -216 -6 -11 -13 -45 -16 -75 -6 -49 -48 -176 -76 -227 -27 -50 -115 -199 -121 -203 -3 -3 -27 -33 -53 -66 -51 -68 -196 -190 -300 -253 -37 -22 -70 -41 -73 -41 -3 0 -39 -16 -80 -35 -41 -19 -83 -35 -94 -35 -10 0 -21 -4 -24 -9 -3 -5 -27 -14 -53 -21 -285 -74 -436 -74 -883 3 -108 19 -371 85 -425 106 -11 5 -54 19 -95 31 -41 13 -79 27 -84 31 -6 5 -16 9 -24 9 -13 0 -33 8 -117 45 -16 7 -58 23 -93 35 -34 13 -65 27 -68 31 -3 5 -12 9 -20 9 -14 0 -45 12 -141 56 -17 8 -33 14 -36 14 -3 0 -45 18 -92 40 -47 22 -97 43 -110 46 -14 3 -28 10 -31 15 -3 5 -12 9 -21 9 -8 0 -29 6 -46 14 -44 20 -205 73 -247 81 -19 4 -41 11 -50 16 -18 9 -56 19 -270 70 -91 22 -181 44 -200 49 -52 15 -264 33 -429 36 -152 2 -176 9 -165 50 3 11 22 29 41 40 20 10 41 24 47 29 43 40 148 121 231 179 28 19 59 43 70 53 11 10 40 31 64 48 59 40 167 140 271 250 47 49 134 142 195 205 91 95 166 182 213 245 4 6 27 35 53 65 25 30 66 83 92 117 26 34 53 68 60 75 16 17 68 87 84 113 7 11 26 43 43 70 17 28 57 88 90 135 33 47 72 110 88 140 15 30 31 60 35 65 16 21 119 181 128 200 5 11 26 52 47 90 74 136 145 271 174 330 16 33 43 87 60 120 17 33 41 80 53 105 86 179 115 241 130 285 10 28 23 64 31 80 59 137 119 374 134 530 10 93 3 273 -10 290 -4 6 -11 30 -15 55 -8 49 -87 220 -126 271 -94 124 -183 212 -244 240 -11 5 -40 21 -64 34 -24 14 -52 25 -61 25 -9 0 -25 7 -36 15 -10 8 -30 15 -44 15 -14 12 -67 15 -200 15 -95 0 -176 -4 -181 -9z"/>
  </g> 
</svg>
